<svg width="33" height="31" viewBox="0 0 33 31" fill="none" xmlns="http://www.w3.org/2000/svg">
<path d="M19.6406 11.2939C19.0547 10.8252 18.1758 10.9424 17.6484 11.5283C17.1797 12.1143 17.2383 12.9932 17.8828 13.5205C18.5273 14.0479 18.9375 14.8096 18.9375 15.6299C18.9375 16.5088 18.5273 17.2705 17.8828 17.7979C17.2383 18.3252 17.1797 19.2041 17.6484 19.79C17.9414 20.1416 18.3516 20.3174 18.7617 20.3174C19.0547 20.3174 19.4062 20.2002 19.6406 20.0244C20.9883 18.9111 21.75 17.3291 21.75 15.6299C21.75 13.9893 20.9883 12.4072 19.6406 11.2939ZM23.2148 6.95801C22.5703 6.43066 21.6914 6.54785 21.2227 7.13379C20.6953 7.71973 20.8125 8.59863 21.3984 9.12598C23.3906 10.7666 24.5039 13.1104 24.5039 15.6299C24.5039 18.0908 23.3906 20.4932 21.3984 22.1338C20.8125 22.6025 20.6953 23.4814 21.2227 24.0674C21.5156 24.4189 21.8672 24.5947 22.2773 24.5947C22.6289 24.5947 22.9219 24.4775 23.2148 24.3018C25.8516 22.1924 27.375 19.0283 27.375 15.6299C27.375 12.2314 25.8516 9.12598 23.2148 6.95801ZM26.7891 2.62207C26.2031 2.09473 25.3242 2.21191 24.7969 2.79785C24.3281 3.38379 24.3867 4.2627 24.9727 4.79004C28.2539 7.48535 30.1875 11.4111 30.1875 15.6299C30.1875 19.79 28.2539 23.7744 24.9727 26.4697C24.3867 26.9971 24.3281 27.876 24.7969 28.4619C25.0898 28.8135 25.5 28.9893 25.9102 28.9893C26.2031 28.9893 26.4961 28.8721 26.7891 28.6377C30.7148 25.4736 33 20.7275 33 15.6299C33 10.4736 30.7148 5.84473 26.7891 2.62207ZM11.8477 10.8838C12.4336 10.9424 13.0781 10.5908 13.3125 10.0049L15.2461 5.08301C15.5391 4.43848 15.2461 3.67676 14.7188 3.3252L10.7344 0.864258C10.207 0.512695 9.44531 0.629883 8.97656 1.09863C0.949219 9.12598 0.949219 22.1924 8.97656 30.2197C9.44531 30.6885 10.207 30.8057 10.7344 30.4541L14.7188 27.9932C15.2461 27.6416 15.5391 26.8799 15.2461 26.2354L13.3125 21.3135C13.0781 20.7275 12.4336 20.376 11.8477 20.4346L8.74219 20.7275C7.57031 17.4463 7.57031 13.8721 8.74219 10.5908L11.8477 10.8838Z" fill="#0A80DA"/>
</svg>
