<svg xmlns="http://www.w3.org/2000/svg" viewBox="0 0 407.7 116.5"><path fill="#164269" d="M106.8.7h17.6v113.5h-17.6zm81.7 78.5c0 17.6-14.4 19-18.8 19-11 0-12.6-10.3-12.6-16.5V37.8h-17.7v43.8c-.1 10.9 3 19.9 9 25.9 5.3 5.3 12.7 8.2 21.3 8.2 6.1 0 13.2-1.9 18.8-6.1v4.6h17.7V37.8h-17.7v41.4zm55.9-67.1h-17.7v25.7h-12.4v16.7h12.4v59.7h17.7V54.5h14.5V37.8h-14.5zm71.7 80.4c-4 3.6-9.3 5.6-15.1 5.6-12.8 0-22.2-9.4-22.2-22.3s9.1-21.9 22.2-21.9c5.7 0 11.1 1.9 15.2 5.5l2.8 2.4 12.4-12.4-3.1-2.8c-7.3-6.6-17-10.3-27.3-10.3-23 0-39.7 16.6-39.7 39.4 0 22.7 17.1 39.9 39.7 39.9 10.5 0 20.3-3.7 27.5-10.4l3-2.8L318.9 90l-2.8 2.5zm81.7-48c-5.3-5.3-12.7-8.2-21.3-8.2-6.1 0-13.2 1.9-18.8 6.1V.7H340v113.5h17.7V72.8c0-17.6 14.4-19 18.8-19 11 0 12.6 10.3 12.6 16.5v43.9h17.7V70.4c.1-10.9-3-19.9-9-25.9z"/><circle fill="#1ABC9C" cx="300.4" cy="76" r="13.3"/><path fill="#164269" d="M80.6 87c-7 7.2-16.5 11.1-26.5 11.1-20.5 0-35.4-16.1-35.4-38.2 0-22.2 14.9-38.3 35.4-38.3 9.9 0 19.3 3.9 26.4 11l2.8 2.8 12.3-12.3-2.7-2.8C82.7 9.8 68.9 4.1 54.1 4.1 23.9 4.1 1.2 28.1 1.2 60c0 31.8 22.8 55.7 52.9 55.7 14.9 0 28.7-5.8 38.9-16.3l2.7-2.8-12.2-12.5-2.9 2.9z"/></svg>