<svg width="30" height="23" viewBox="0 0 30 23" fill="none" xmlns="http://www.w3.org/2000/svg">
<path d="M27.1875 0.379883C28.7109 0.379883 30 1.66895 30 3.19238C30 4.12988 29.5312 4.9502 28.8281 5.47754L16.1133 15.0283C15.4102 15.5557 14.5312 15.5557 13.8281 15.0283L1.11328 5.47754C0.410156 4.9502 0 4.12988 0 3.19238C0 1.66895 1.23047 0.379883 2.8125 0.379883H27.1875ZM12.7148 16.5518C14.0625 17.5479 15.8789 17.5479 17.2266 16.5518L30 6.94238V19.1299C30 21.2393 28.3008 22.8799 26.25 22.8799H3.75C1.64062 22.8799 0 21.2393 0 19.1299V6.94238L12.7148 16.5518Z" fill="#0A80DA"/>
</svg>
