<svg width="22" height="22" viewBox="0 0 22 22" fill="none" xmlns="http://www.w3.org/2000/svg">
<path d="M11.5 5.48926C14.4531 5.48926 16.8906 7.92676 16.8906 10.8799C16.8906 13.8799 14.4531 16.2705 11.5 16.2705C8.5 16.2705 6.10938 13.8799 6.10938 10.8799C6.10938 7.92676 8.5 5.48926 11.5 5.48926ZM11.5 14.3955C13.4219 14.3955 14.9688 12.8486 14.9688 10.8799C14.9688 8.95801 13.4219 7.41113 11.5 7.41113C9.53125 7.41113 7.98438 8.95801 7.98438 10.8799C7.98438 12.8486 9.57812 14.3955 11.5 14.3955ZM18.3438 5.30176C18.3438 4.59863 17.7812 4.03613 17.0781 4.03613C16.375 4.03613 15.8125 4.59863 15.8125 5.30176C15.8125 6.00488 16.375 6.56738 17.0781 6.56738C17.7812 6.56738 18.3438 6.00488 18.3438 5.30176ZM21.9062 6.56738C22 8.30176 22 13.5049 21.9062 15.2393C21.8125 16.9268 21.4375 18.3799 20.2188 19.6455C19 20.8643 17.5 21.2393 15.8125 21.333C14.0781 21.4268 8.875 21.4268 7.14062 21.333C5.45312 21.2393 4 20.8643 2.73438 19.6455C1.51562 18.3799 1.14062 16.9268 1.04688 15.2393C0.953125 13.5049 0.953125 8.30176 1.04688 6.56738C1.14062 4.87988 1.51562 3.37988 2.73438 2.16113C4 0.942383 5.45312 0.567383 7.14062 0.473633C8.875 0.379883 14.0781 0.379883 15.8125 0.473633C17.5 0.567383 19 0.942383 20.2188 2.16113C21.4375 3.37988 21.8125 4.87988 21.9062 6.56738ZM19.6562 17.0674C20.2188 15.708 20.0781 12.4268 20.0781 10.8799C20.0781 9.37988 20.2188 6.09863 19.6562 4.69238C19.2812 3.80176 18.5781 3.05176 17.6875 2.72363C16.2812 2.16113 13 2.30176 11.5 2.30176C9.95312 2.30176 6.67188 2.16113 5.3125 2.72363C4.375 3.09863 3.67188 3.80176 3.29688 4.69238C2.73438 6.09863 2.875 9.37988 2.875 10.8799C2.875 12.4268 2.73438 15.708 3.29688 17.0674C3.67188 18.0049 4.375 18.708 5.3125 19.083C6.67188 19.6455 9.95312 19.5049 11.5 19.5049C13 19.5049 16.2812 19.6455 17.6875 19.083C18.5781 18.708 19.3281 18.0049 19.6562 17.0674Z" fill="white"/>
</svg>
