<svg width="21" height="22" viewBox="0 0 21 22" fill="none" xmlns="http://www.w3.org/2000/svg">
<path d="M4.6875 21.8799H0.328125V7.86426H4.6875V21.8799ZM2.48438 5.98926C1.125 5.98926 0 4.81738 0 3.41113C0 1.48926 2.0625 0.270508 3.75 1.25488C4.54688 1.67676 5.01562 2.52051 5.01562 3.41113C5.01562 4.81738 3.89062 5.98926 2.48438 5.98926ZM20.9531 21.8799H16.6406V15.083C16.6406 13.4424 16.5938 11.3799 14.3438 11.3799C12.0938 11.3799 11.7656 13.1143 11.7656 14.9424V21.8799H7.40625V7.86426H11.5781V9.78613H11.625C12.2344 8.70801 13.6406 7.53613 15.75 7.53613C20.1562 7.53613 21 10.4424 21 14.1924V21.8799H20.9531Z" fill="white"/>
</svg>
