<svg width="23" height="31" viewBox="0 0 23 31" fill="none" xmlns="http://www.w3.org/2000/svg">
<path d="M9.84375 29.9268C6.79688 26.1182 0 17.0361 0 11.8799C0 5.66895 4.98047 0.629883 11.25 0.629883C17.4609 0.629883 22.5 5.66895 22.5 11.8799C22.5 17.0361 15.6445 26.1182 12.5977 29.9268C11.8945 30.8057 10.5469 30.8057 9.84375 29.9268ZM11.25 15.6299C13.3008 15.6299 15 13.9893 15 11.8799C15 9.8291 13.3008 8.12988 11.25 8.12988C9.14062 8.12988 7.5 9.8291 7.5 11.8799C7.5 13.9893 9.14062 15.6299 11.25 15.6299Z" fill="#0A80DA"/>
</svg>
