<svg width="24" height="20" viewBox="0 0 24 20" fill="none" xmlns="http://www.w3.org/2000/svg">
<path d="M21.5156 5.00488C21.5156 5.23926 21.5156 5.42676 21.5156 5.66113C21.5156 12.1768 16.5938 19.6299 7.54688 19.6299C4.73438 19.6299 2.15625 18.833 0 17.4268C0.375 17.4736 0.75 17.5205 1.17188 17.5205C3.46875 17.5205 5.57812 16.7236 7.26562 15.4111C5.10938 15.3643 3.28125 13.958 2.67188 11.9893C3 12.0361 3.28125 12.083 3.60938 12.083C4.03125 12.083 4.5 11.9893 4.875 11.8955C2.625 11.4268 0.9375 9.45801 0.9375 7.06738V7.02051C1.59375 7.39551 2.39062 7.58301 3.1875 7.62988C1.82812 6.73926 0.984375 5.23926 0.984375 3.55176C0.984375 2.61426 1.21875 1.77051 1.64062 1.06738C4.07812 4.02051 7.73438 5.98926 11.8125 6.22363C11.7188 5.84863 11.6719 5.47363 11.6719 5.09863C11.6719 2.37988 13.875 0.176758 16.5938 0.176758C18 0.176758 19.2656 0.739258 20.2031 1.72363C21.2812 1.48926 22.3594 1.06738 23.2969 0.504883C22.9219 1.67676 22.1719 2.61426 21.1406 3.22363C22.125 3.12988 23.1094 2.84863 23.9531 2.47363C23.2969 3.45801 22.4531 4.30176 21.5156 5.00488Z" fill="white"/>
</svg>
